<svg width="793" height="909" viewBox="0 0 793 909" fill="none" xmlns="http://www.w3.org/2000/svg">
<path d="M426 240C443.5 270.5 474 268 489.5 259.5M588 281C598 301 627 307 644.5 293" stroke="black" stroke-width="20" stroke-linecap="round"/>
<path d="M439.818 362.5C710.318 528.5 760.318 140 731.318 97.5001M647.818 130C657.818 118 709.818 85.9996 730.818 97.0001M488.318 85.4996C556.318 77 626.318 109.5 647.318 130M436.318 10C451.318 10 479.318 52 487.818 85M361.318 129C387.818 57.5 419.318 21.5 435.818 10.5M43.8456 675C-100.645 292 257.851 112 361.846 130.5M620.352 820C349.352 1006 114.352 821.5 44.3516 676M752.852 364C846.852 585 691.352 772.5 621.352 819.5" stroke="black" stroke-width="20" stroke-linecap="round"/>
</svg>