<?xml version="1.0" standalone="no"?>
<!DOCTYPE svg PUBLIC "-//W3C//DTD SVG 20010904//EN"
 "http://www.w3.org/TR/2001/REC-SVG-20010904/DTD/svg10.dtd">
<svg version="1.0" xmlns="http://www.w3.org/2000/svg"
 width="414.000000pt" height="414.000000pt" viewBox="0 0 414.000000 414.000000"
 preserveAspectRatio="xMidYMid meet">
<metadata>
Created by potrace 1.14, written by Peter Selinger 2001-2017
</metadata>
<g transform="translate(0.000000,414.000000) scale(0.100000,-0.100000)"
fill="#000000" stroke="none">
<path d="M2212 4086 c-37 -27 -57 -49 -116 -126 -68 -88 -97 -141 -177 -317
-26 -58 -31 -63 -61 -64 -290 -8 -651 -173 -957 -437 -228 -198 -420 -484
-510 -762 -30 -90 -35 -110 -47 -170 -3 -14 -7 -32 -9 -40 -20 -67 -28 -448
-12 -565 26 -194 113 -484 183 -609 24 -43 44 -80 44 -82 0 -2 6 -12 14 -21 8
-10 43 -56 77 -103 61 -83 265 -295 343 -355 53 -41 186 -133 216 -150 177
-95 376 -177 490 -199 14 -3 34 -7 45 -9 28 -6 114 -19 155 -23 52 -6 269 -6
315 0 96 12 160 22 160 26 0 1 15 3 33 6 61 8 302 94 400 143 271 135 425 250
580 434 72 86 160 206 193 263 10 19 29 51 41 71 172 299 259 687 224 1008
-12 116 -19 152 -50 274 -8 33 -30 97 -48 143 -18 46 -31 86 -30 91 1 4 -4 7
-12 7 -8 0 -21 2 -29 6 -9 3 -18 -5 -25 -23 -13 -30 -12 -42 7 -88 31 -74 77
-242 86 -315 34 -250 20 -469 -40 -680 -18 -63 -38 -122 -50 -150 -2 -3 -6
-16 -11 -30 -24 -76 -200 -384 -249 -436 -5 -6 -23 -29 -40 -50 -104 -135
-248 -258 -419 -358 -387 -228 -783 -306 -1176 -231 -84 15 -240 62 -254 76
-6 5 -16 9 -24 9 -14 0 -182 78 -192 89 -3 3 -26 17 -52 31 -27 13 -48 28 -48
32 0 5 -5 8 -12 8 -35 0 -282 216 -388 340 -48 56 -57 67 -91 115 -113 156
-176 296 -229 510 -29 118 -35 150 -50 270 -11 85 -5 429 9 495 6 30 13 64 15
75 8 36 54 189 67 220 7 17 13 32 13 35 5 23 89 182 133 250 119 182 332 401
479 490 21 13 41 27 44 30 11 14 131 82 211 119 184 87 351 131 493 131 70 0
77 2 86 23 79 193 155 343 194 382 9 9 16 19 16 23 0 8 46 59 77 85 21 18 22
18 53 -15 44 -45 105 -151 130 -223 11 -33 24 -63 29 -68 5 -5 55 -8 112 -9
57 0 124 -3 149 -8 25 -4 61 -11 80 -14 93 -14 262 -86 335 -141 25 -19 52
-35 61 -35 9 0 33 13 53 29 51 40 138 91 145 84 3 -4 6 -2 6 3 0 8 67 31 117
40 29 5 43 -44 43 -153 1 -301 -92 -631 -238 -847 -51 -75 -162 -191 -193
-201 -10 -4 -19 -10 -19 -14 0 -4 -18 -14 -40 -21 -22 -7 -40 -16 -40 -20 0
-4 -17 -11 -37 -15 -21 -5 -45 -10 -53 -12 -8 -3 -56 -6 -107 -8 -81 -2 -117
1 -198 19 -56 12 -178 61 -259 104 -50 27 -99 49 -109 49 -11 0 -24 -11 -30
-24 -9 -20 -7 -27 14 -46 44 -41 318 -171 347 -165 4 1 14 -2 22 -5 68 -28
272 -30 365 -3 57 17 145 54 155 66 3 3 23 17 45 32 40 26 155 132 155 142 0
3 9 16 20 29 39 44 106 162 142 247 99 232 148 472 143 695 -4 186 -28 235
-114 235 -25 0 -64 -5 -86 -11 -43 -12 -176 -75 -185 -88 -12 -18 -71 -45 -78
-36 -10 14 -57 42 -132 76 -139 65 -268 97 -428 106 l-103 6 -33 73 c-68 145
-162 254 -222 254 -11 0 -35 -11 -52 -24z"/>
<path d="M2178 3055 c-10 -22 -8 -31 18 -68 41 -58 108 -97 170 -99 77 -2 117
5 142 26 48 42 10 100 -47 69 -28 -15 -104 -15 -136 0 -11 5 -39 29 -61 53
-48 50 -69 55 -86 19z"/>
<path d="M2916 2887 c-52 -38 13 -126 114 -154 39 -11 101 -4 143 16 50 24 62
43 47 72 -13 23 -26 24 -73 4 -69 -29 -133 -12 -175 45 -25 34 -31 35 -56 17z"/>
</g>
</svg>
